<svg width="37" height="36" viewBox="0 0 37 36" fill="none" xmlns="http://www.w3.org/2000/svg">
<path d="M34.9493 12.3056L25.1059 10.8705L20.7063 1.95012C19.918 0.360083 17.6341 0.33987 16.839 1.95012L12.4395 10.8705L2.59609 12.3056C0.830881 12.5616 0.12345 14.7378 1.40356 15.9842L8.52503 22.9238L6.84068 32.7267C6.53749 34.4987 8.40376 35.826 9.96685 34.9973L18.7727 30.3686L27.5785 34.9973C29.1416 35.8192 31.0079 34.4987 30.7047 32.7267L29.0203 22.9238L36.1418 15.9842C37.4219 14.7378 36.7145 12.5616 34.9493 12.3056ZM26.7094 22.1692L28.5824 33.0838L18.7727 27.9364L8.96971 33.0906L10.8427 22.1759L2.90601 14.4346L13.8678 12.8446L18.7727 2.90683L23.6775 12.8446L34.6393 14.4346L26.7094 22.1692Z" fill="#FFD057"/>
<path d="M26.7094 22.1692L28.5824 33.0838L18.7727 27.9364L8.96971 33.0906L10.8427 22.1759L2.90601 14.4346L13.8678 12.8446L18.7727 2.90683L23.6775 12.8446L34.6393 14.4346L26.7094 22.1692Z" fill="#FFD057"/>
</svg>
