<svg width="137" height="137" viewBox="0 0 137 137" fill="none" xmlns="http://www.w3.org/2000/svg">
<circle cx="68.5" cy="68.5" r="68.5" fill="#0D900E"/>
<path fill-rule="evenodd" clip-rule="evenodd" d="M64.3069 50.6931C59.8418 58.1497 53.019 63.831 47.6086 70.6724C46.6025 71.9445 45.5792 73.3797 44.688 74.8687C38.4822 85.2368 36.2581 97.7173 46.4897 105.221C49.0792 107.12 52.9032 109.132 57.5594 109.22C64.669 109.354 66.1533 105.463 67.682 104.844C68.084 107.416 70.126 109.456 73.5148 108.666C76.6013 107.946 77.2569 106.227 78.4459 104.015C79.5513 105.295 80.3125 106.205 82.5299 106.608C90.5387 108.063 89.5437 97.3907 86.5365 96.2153L86.2381 96.9279C85.0128 101.88 86.5443 99.7403 86.9555 101.966C85.2017 102.556 83.0945 102.897 81.3643 101.878C79.3101 100.668 80.6459 99.5909 80.8469 97.549C78.3981 98.1761 79.113 101.616 75.0927 103.701C73.9349 104.301 71.8134 105.15 70.221 104.439C68.5784 103.706 69.1489 102.168 69.47 100.479C66.6084 100.827 67.2925 105.149 59.1571 105.253C54.1351 105.318 50.4667 103.6 47.6546 101.624C45.3122 99.9777 42.9294 96.475 42.3732 92.5692C40.4512 79.071 54.3121 66.2837 63.3381 56.173C66.9108 52.1709 66.8187 51.7518 68.8069 47.431C69.6019 48.3693 70.2857 49.5673 71.0438 50.5314C71.9277 51.6555 72.7038 52.5217 73.5749 53.4888C78.9218 59.4255 83.6651 64.2988 88.7889 70.817C91.8555 74.7184 94.9522 78.9136 97.3318 83.8214C99.3692 88.0238 102.083 96.3002 99.6772 100.738L98.491 103.636C98.8315 103.132 99.397 102.663 99.8472 102.004C109.048 88.5436 95.3325 71.9457 86.089 61.8544C85.0772 60.7498 84.0275 59.7198 83.0108 58.5788L76.8294 51.8465C76.3784 51.3614 75.651 50.6543 75.3063 50.1868C74.6607 49.3113 75.2591 48.7943 75.0582 47.628C74.5148 44.4738 70.2068 45.4084 69.2123 40.4536C66.6753 42.4258 68.3694 46.1923 68.5041 46.7692C68.772 47.9157 65.0245 48.9069 64.3073 50.6931H64.3069Z" fill="white"/>
<path fill-rule="evenodd" clip-rule="evenodd" d="M90.7146 108.613C90.3713 106.244 91.6838 99.4121 94.6421 103.036C95.9618 104.653 96.4203 105.288 94.6194 106.584C93.6909 107.252 92.0672 108.186 90.7146 108.613ZM96.7469 100.674C96.2179 100.063 93.7192 94.6521 90.8114 99.7046C89.1874 102.526 89.5558 105.769 89.6106 109.085C87.222 110.819 77.9886 113.055 75.1992 113.522C59.8954 116.087 41.4363 112.089 38.6453 96.3566C35.5886 79.1264 49.933 66.9566 58.811 55.4109C59.9512 53.928 61.7996 51.7921 62.5384 50.1549C64.362 49.136 68.7763 38.7967 69.521 35.5268C70.2094 32.5044 70.4525 29.3182 70.1147 26.147C69.8725 23.8739 68.9519 19.378 67.4029 18.0581C65.6081 17.403 62.4178 22.4649 62.4629 24.4713C62.8866 23.4124 63.7095 21.9592 64.9761 21.7619C66.6065 23.8599 67.0929 29.235 66.9287 32.3004C66.7305 36.0038 65.8429 39.3527 64.4157 42.429C57.1302 58.132 35.8736 71.5579 35.0294 91.0214C33.9499 115.904 62.8624 122.853 85.3838 114.831C88.1626 113.841 92.7199 111.881 94.5276 110.478C97.757 107.971 97.4942 104.322 96.7469 100.674V100.674Z" fill="white"/>
<path fill-rule="evenodd" clip-rule="evenodd" d="M60.9727 76.0969C60.8157 79.4085 59.2463 81.9871 59.2779 85.473C59.3382 92.1246 65.0431 96.2197 72.0519 91.7219C74.4432 90.1872 75.5666 87.2942 76.1414 84.699C77.544 89.8007 82.3257 92.3358 86.6918 90.9599C88.4859 90.3946 89.2513 89.9238 89.966 88.6573C91.6291 85.71 91.5728 83.0399 90.095 79.998C89.3001 78.3617 86.5256 74.2262 86.5571 72.6166L88.298 73.3182C87.9859 71.3624 85.0748 68.3544 83.941 67.3096C83.5615 67.9593 83.2142 68.9148 82.8921 69.6111C82.2454 71.0093 82.4285 70.8278 82.9937 72.083C83.625 73.485 84.0603 75.6615 84.6517 77.1918C85.5347 79.4774 89.072 84.775 89.0401 86.4648C86.5164 87.8189 83.7313 87.5263 81.6492 86.1509C79.8237 84.9449 78.758 83.4778 78.2154 80.8009C77.7251 78.3822 77.5161 75.9255 77.062 73.4597C76.4974 70.3934 76.1157 69.7259 74.688 67.4212C74.1564 68.0023 73.8894 69.1575 73.5806 70.0487C73.1001 71.4362 73.4064 71.6036 73.7797 72.9654C74.6669 76.2022 75.8153 82.4598 74.1816 85.4367C72.0755 89.274 67.8155 90.5585 63.8602 88.3242C57.9501 84.9855 64.9855 74.9195 62.7493 71.6415C57.101 70.5389 56.2547 84.6426 54.6309 88.4855C52.6484 93.1774 46.2351 91.8015 47.2265 79.3236C47.2976 78.4287 47.6016 77.2537 47.2702 76.6575C45.9878 80.5078 45.0846 82.7193 46.3745 87.6696C47.0783 90.3702 49.4867 94.7107 53.0519 93.8585C55.9653 93.1621 56.5752 88.1062 57.1585 85.1136C57.6927 82.3726 58.3538 77.7435 60.9727 76.097L60.9727 76.0969Z" fill="white"/>
<path fill-rule="evenodd" clip-rule="evenodd" d="M78.388 98.923C79.0305 97.8238 79.75 96.4923 80.2948 95.1954C79.99 94.9076 76.1097 92.9346 75.5092 92.791L73.5705 96.3438C72.1609 95.8929 70.4095 94.7111 68.9663 94.0802C68.107 94.7177 67.7006 96.4511 66.9126 97.3684C65.442 97.1002 63.6883 95.628 62.206 95.067C61.7099 95.6838 60.426 97.9501 60.2168 98.767C60.8784 99.2596 64.0892 101.096 64.8932 101.352L66.9125 97.9536C68.8115 98.2871 69.6619 99.7923 71.7167 100.112L73.436 96.7306C75.2861 97.0937 76.7497 98.3953 78.3879 98.923L78.388 98.923Z" fill="white"/>
<path fill-rule="evenodd" clip-rule="evenodd" d="M61.9908 66.6227C60.9851 68.0139 53.7697 71.0216 52.8711 71.9172C54.1795 71.9434 57.356 70.59 58.5295 70.0497C60.2427 69.2608 61.9041 68.042 63.0348 66.7674L65.5957 66.8915C66.1479 65.7413 67.015 64.8831 65.806 63.6238C65.2347 63.0286 63.7542 61.8962 62.824 61.6244C60.4786 60.939 60.9801 62.5318 60.5752 63.9037C59.9041 66.1777 60.6406 65.7341 61.9908 66.6227V66.6227Z" fill="white"/>
<path fill-rule="evenodd" clip-rule="evenodd" d="M69.8072 84.4632C71.6326 83.4915 71.1131 78.9678 70.5055 77.3891C69.759 75.4499 67.7731 73.2922 66.2693 72.6685C65.1317 73.601 64.9164 74.3416 65.8441 75.0843C67.6119 76.4996 69.0858 78.0637 69.7578 80.2135C70.3457 82.0942 69.7152 82.8265 69.8072 84.4632H69.8072Z" fill="white"/>
<path fill-rule="evenodd" clip-rule="evenodd" d="M75.9517 63.3738C73.5293 64.2753 74.1832 61.0179 73.448 59.7443L73.0433 59.2698C72.4317 60.7702 72.8177 60.3619 73.0431 61.9011C73.2225 63.126 72.7034 63.8308 71.4758 63.9714C69.7586 63.0189 71.164 61.5313 70.5431 59.9171C68.3336 60.5973 69.7969 62.1415 69.8278 62.281C70.1178 63.5858 69.52 64.5834 70.7022 65.3207C72.4282 65.9637 72.8346 64.7226 73.4989 63.8458C74.697 66.6146 77.8653 64.5211 76.2569 61.0784L75.4454 59.1942C75.4249 59.1626 75.3825 59.1015 75.3423 59.061C74.2948 61.7379 76.1463 61.8479 75.9516 63.3736L75.9517 63.3738Z" fill="white"/>
<path fill-rule="evenodd" clip-rule="evenodd" d="M55.2601 97.7764C58.2255 92.6931 48.5273 97.3585 51.7922 99.8214L52.5151 100.354C51.6962 101.123 51.3391 101.114 51.1788 102.415C52.1411 102.072 54.0039 100.86 54.972 100.288C56.2436 99.5363 57.4924 99.2701 57.7506 97.5726C55.9001 97.877 54.4097 100.082 52.6164 98.1554C52.8452 97.6601 53.0937 97.2979 53.743 97.1927C54.9805 96.9921 54.3853 97.3752 55.2602 97.7764H55.2601Z" fill="white"/>
<path fill-rule="evenodd" clip-rule="evenodd" d="M50.2681 83.0847C50.0676 82.1173 50.4651 81.4184 50.6914 80.637C51.726 80.9175 52.6289 81.469 52.9883 82.0995C52.5575 82.816 51.6244 83.24 50.2682 83.0847H50.2681ZM51.6367 78.9579L52.4309 76.8047C51.0054 77.1938 50.4908 79.0655 50.0504 80.3339C47.7217 87.0409 53.1043 85.0659 53.5961 82.6094C53.9963 80.6108 52.8296 79.5814 51.6367 78.9579V78.9579Z" fill="white"/>
<path fill-rule="evenodd" clip-rule="evenodd" d="M91.8652 89.7684C94.9203 91.3125 96.1248 93.5605 96.2443 97.7261C99.1326 94.5862 94.9514 88.4514 92.1693 87.7358L91.8652 89.7684Z" fill="white"/>
</svg>
